# xmcd CD database file
#
# Track frame offsets:
#	150
#	21509
#	41902
#	63261
#
# Disc length: 1111 seconds
#
# Revision: 1
# Processed by: cddbd v1.5.2PL0 Copyright (c) Steve Scherf et al.
# Submitted via: CDex 1.70beta1
#
DISCID=33045504
DTITLE=DEEN - ユートピアは見えているのに
DYEAR=2003
DGENRE=J-POP
TTITLE0=ユートピアは見えてるのに
TTITLE1=Re-Birth
TTITLE2=ユートピアは見えてるのに ?instrumental?
TTITLE3=Re-Birth ?instrumental?
EXTD=YEAR: 2003
EXTT0=
EXTT1=
EXTT2=
EXTT3=
PLAYORDER=
